<svg id="Layer_1" data-name="Layer 1" xmlns="http://www.w3.org/2000/svg" viewBox="0 0 512 512"><defs><style>.cls-1{fill:#79d3d3;}.cls-2{fill:#f4607f;}.cls-3{fill:#d9e4e8;}.cls-4{fill:#17292d;opacity:0.14;}.cls-5{fill:#141f38;}</style></defs><title>helmet_2_style_3</title><path class="cls-1" d="M64,390.4v-128c0-105.87,86.13-192,192-192s192,86.13,192,192v128Z"/><path class="cls-2" d="M448,70.4a25.6,25.6,0,1,1,25.6-25.6A25.62,25.62,0,0,1,448,70.4Z"/><circle class="cls-3" cx="115.2" cy="441.6" r="12.8"/><path class="cls-4" d="M256,57.6h0A203.78,203.78,0,0,0,154.08,84.79,206.63,206.63,0,0,1,179.2,83.2h0C292.31,83.2,384,174.89,384,288V403.2h76.8V262.4C460.8,149.29,369.11,57.6,256,57.6Z"/><path class="cls-3" d="M499.2,294.4v76.8A19.22,19.22,0,0,1,480,390.4H448V275.2h32A19.22,19.22,0,0,1,499.2,294.4ZM64,457.31A35.49,35.49,0,0,0,99.49,492.8h313A35.49,35.49,0,0,0,448,457.31V390.4H64ZM32,275.2a19.22,19.22,0,0,0-19.2,19.2v76.8A19.22,19.22,0,0,0,32,390.4H64V275.2Z"/><path class="cls-5" d="M480,262.4H460.8V81a38.4,38.4,0,1,0-25.6,0v82.2A204.73,204.73,0,0,0,256,57.6h0c-113.11,0-204.8,91.69-204.8,204.8H32a32,32,0,0,0-32,32v76.8a32,32,0,0,0,32,32H51.2v58A44.36,44.36,0,0,0,95.56,505.6H416.44a44.36,44.36,0,0,0,44.36-44.36v-58H480a32,32,0,0,0,32-32V294.4A32,32,0,0,0,480,262.4ZM448,32a12.8,12.8,0,1,1-12.8,12.8A12.81,12.81,0,0,1,448,32ZM256,83.2c98.81,0,179.2,80.39,179.2,179.2V377.6H76.8V262.4C76.8,163.59,157.19,83.2,256,83.2ZM32,377.6a6.41,6.41,0,0,1-6.4-6.4V294.4A6.41,6.41,0,0,1,32,288H51.2v89.6Zm403.2,75.78A26.62,26.62,0,0,1,408.58,480H103.42A26.62,26.62,0,0,1,76.8,453.38V403.2H435.2Zm51.2-82.18a6.41,6.41,0,0,1-6.4,6.4H460.8V288H480a6.41,6.41,0,0,1,6.4,6.4Zm-384,70.4a12.8,12.8,0,1,1,12.8,12.8A12.8,12.8,0,0,1,102.4,441.6Z"/></svg>