<!-- Generated by IcoMoon.io -->
<svg version="1.1" xmlns="http://www.w3.org/2000/svg" width="1024" height="1024" viewBox="0 0 1024 1024">
<title></title>
<g id="icomoon-ignore">
</g>
<path fill="#00ab6b" d="M756.736 808.192l-17.664 28.8 226.688 113.28c9.6 4.864 18.816 7.040 26.752 7.040 17.792 0 29.888-11.328 29.888-31.488v-549.312l-265.6 431.68zM1018.88 253.312c-0.256-0.192 0-0.64-0.192-0.768l-308.8-154.368c-3.84-1.92-7.872-2.432-11.968-2.816-1.024 0-1.92-0.64-3.008-0.64-11.776 0-23.552 5.888-29.888 16.256l-15.36 24.96-32 52.096-120.96 197.12 184.96 300.864 37.76 60.8 301.44-488.96c1.28-1.92 0.64-3.84-1.28-5.12zM617.6 704.192l-196.416-319.168-16-26.624v311.488l276.48 138.432-64-104.064zM47.168 107.52l-9.408-4.608c-5.44-2.688-10.624-3.968-15.36-3.968-13.184 0-22.4 10.24-22.4 27.328v650.368c0 17.408 12.8 38.016 28.288 45.824l265.28 133.12c6.848 3.84 13.312 5.12 19.2 5.12 16.448 0 28.032-12.8 28.032-33.92v-670.144c0-1.28-0.768-2.56-1.92-3.008l-291.648-146.112z"></path>
</svg>
